<?xml version="1.0" encoding="utf-8"?>
<!-- Generator: Adobe Illustrator 25.1.0, SVG Export Plug-In . SVG Version: 6.00 Build 0)  -->
<svg version="1.1" id="Layer_1" xmlns="http://www.w3.org/2000/svg" xmlns:xlink="http://www.w3.org/1999/xlink" x="0px" y="0px"
	 viewBox="0 0 200 100" style="enable-background:new 0 0 200 100;" xml:space="preserve">
<style type="text/css">
	.st0{enable-background:new    ;}
</style>
<g>
	<g>
		<path d="M196.23,8.48c-2.05,0.09-3.77,1.66-3.77,3.77c-0.01,3.86-0.01,7.71-0.02,11.57c-0.01,6.12-0.02,12.24-0.03,18.37
			c0,0.68,0,1.36,0,2.04c-2.71,1.58-5.42,3.16-8.13,4.74c-4.61,2.68-9.22,5.37-13.82,8.05c0-1.67,0.01-3.34,0.01-5
			c0.01-6.12,0.02-12.24,0.03-18.37c0-1.4,0.01-2.81,0.01-4.21c0-1.97-1.74-3.86-3.77-3.77c-2.05,0.09-3.77,1.66-3.77,3.77
			c-0.01,3.86-0.01,7.71-0.02,11.57c-0.01,5.35-0.02,10.71-0.03,16.06c-1.46-0.84-2.93-1.69-4.39-2.53
			c-5.34-3.07-10.68-6.15-16.01-9.22c-0.6-0.35-1.2-0.69-1.8-1.04c0.01-3.13,0.01-6.26,0.02-9.39c0.01-6.12,0.02-12.24,0.03-18.37
			c0-1.4,0.01-2.81,0.01-4.21c0-1.97-1.74-3.86-3.77-3.77c-2.05,0.09-3.77,1.66-3.77,3.77c-0.01,3.86-0.01,7.71-0.02,11.57
			c-0.01,6.12-0.02,12.24-0.03,18.37c0,1.4-0.01,2.81-0.01,4.21c0,1.32,0.72,2.59,1.87,3.26c3.35,1.93,6.7,3.86,10.05,5.79
			c5.34,3.07,10.68,6.15,16.01,9.22c1.22,0.7,2.45,1.41,3.67,2.11c0,0,0.01,0,0.02,0.01c0.56,0.34,1.21,0.54,1.89,0.51
			c0.05,0,0.1-0.01,0.15-0.01c0.5-0.01,1.01-0.13,1.5-0.37c0.14-0.07,0.28-0.14,0.42-0.22c3.29-1.92,6.59-3.84,9.88-5.76
			c5.31-3.09,10.61-6.18,15.92-9.27c1.17-0.68,2.35-1.34,3.51-2.04c1.2-0.73,1.87-1.91,1.9-3.32c0-0.14,0-0.29,0-0.43
			c0-0.69,0-1.39,0-2.08c0.01-5.85,0.02-11.69,0.03-17.54c0.01-4.61,0.02-9.21,0.02-13.82c0-0.08,0-0.16,0-0.24
			C200,10.27,198.26,8.38,196.23,8.48z"/>
		<g>
			<g class="st0">
				<g>
					<g>
						<path d="M96.31,29.43c0.01,3.86,0.01,7.71,0.02,11.57c0.01,6.12,0.02,12.24,0.03,18.37c0,1.4,0,2.81,0.01,4.21
							c0,1.97,1.73,3.86,3.77,3.77c2.04-0.09,3.77-1.66,3.77-3.77c-0.01-3.86-0.01-7.71-0.02-11.57
							c-0.01-6.12-0.02-12.24-0.03-18.37c0-1.4,0-2.81-0.01-4.21c0-1.97-1.73-3.86-3.77-3.77C98.04,25.75,96.31,27.32,96.31,29.43
							L96.31,29.43z"/>
					</g>
				</g>
			</g>
		</g>
		<path d="M66.79,34.75c0-6.12-0.01-12.24-0.01-18.37c0-1.4,0-2.81,0-4.21c0-2.85-3.2-4.7-5.67-3.26c-3.33,1.95-6.66,3.9-9.98,5.85
			c-5.28,3.09-10.57,6.19-15.85,9.28c-0.58,0.34-1.17,0.68-1.75,1.03c-2.71-1.55-5.43-3.11-8.14-4.66
			c-5.35-3.06-10.69-6.12-16.04-9.18c-1.22-0.7-2.45-1.4-3.67-2.1C3.2,7.71,0,9.5,0,12.38c0,3.86,0,7.71,0.01,11.57
			c0,6.12,0.01,12.24,0.01,18.37c0,1.4,0,2.81,0,4.21c0,1.97,1.73,3.86,3.77,3.77c2.04-0.09,3.77-1.66,3.77-3.77
			c0-3.86,0-7.71-0.01-11.57c0-5.36-0.01-10.71-0.01-16.07c1.46,0.84,2.92,1.68,4.39,2.51c5.35,3.06,10.69,6.12,16.04,9.18
			c0.6,0.35,1.21,0.69,1.81,1.04c0,3.13,0,6.27,0.01,9.4c0,6.12,0.01,12.24,0.01,18.37c0,1.4,0,2.81,0,4.21
			c0,1.97,1.73,3.86,3.77,3.77c2.04-0.09,3.77-1.66,3.77-3.77c0-3.86,0-7.71-0.01-11.57c0-6.12-0.01-12.24-0.01-18.37
			c0-0.69,0-1.38,0-2.07c2.7-1.58,5.41-3.17,8.11-4.75c4.6-2.7,9.21-5.39,13.81-8.09c0,1.66,0,3.33,0,4.99
			c0,6.12,0.01,12.24,0.01,18.37c0,1.4,0,2.81,0,4.21c0,1.97,1.73,3.86,3.77,3.77c2.04-0.09,3.77-1.66,3.77-3.77
			C66.8,42.46,66.79,38.61,66.79,34.75z"/>
	</g>
	<g>
		<path d="M31.7,80.36l4.59-5.49h2.55v12.67H36.5v-9.29l-4.8,5.72l-4.82-5.72v9.29h-2.32V74.87h2.53L31.7,80.36z"/>
		<path d="M50.15,77.34c0.67,0,1.24,0.24,1.72,0.71c0.47,0.48,0.71,1.05,0.71,1.72v7.78h-7.93c-0.67,0-1.24-0.24-1.72-0.71
			c-0.47-0.47-0.71-1.05-0.71-1.72v-3.84h8.06v-1.51c0-0.08-0.04-0.12-0.12-0.12h-7.93v-2.3H50.15z M50.27,85.23V83.6h-5.75v1.51
			c0,0.08,0.04,0.12,0.12,0.12H50.27z"/>
		<path d="M63.12,77.34h2.48v0.6l-4.08,4.5l4.08,4.5v0.6h-2.48l-3.64-3.94h-1.81v3.94h-2.3V73.99h2.3v7.28h1.81L63.12,77.34z"/>
		<path d="M68.1,73.99h2.3v2.32h-2.3V73.99z M68.1,87.54v-10.2h2.3v10.2H68.1z"/>
		<path d="M81.57,77.34c0.67,0,1.24,0.24,1.72,0.71c0.47,0.48,0.71,1.05,0.71,1.72v7.78h-2.3v-7.78c0-0.08-0.04-0.12-0.12-0.12
			h-5.51c-0.08,0-0.12,0.04-0.12,0.12v7.78h-2.3v-10.2H81.57z"/>
		<path d="M97.25,89.16c0,0.67-0.23,1.24-0.7,1.72c-0.47,0.47-1.04,0.71-1.71,0.71h-6.25v-2.32h6.25c0.07,0,0.11-0.04,0.11-0.11
			v-1.62h-5.63c-0.67,0-1.24-0.24-1.72-0.71c-0.47-0.47-0.71-1.05-0.71-1.72v-5.35c0-0.67,0.24-1.24,0.71-1.72
			c0.48-0.47,1.05-0.71,1.72-0.71h5.52c0.67,0,1.24,0.24,1.71,0.71c0.47,0.48,0.7,1.05,0.7,1.72V89.16z M89.31,85.23h5.52
			c0.07,0,0.11-0.04,0.11-0.12v-5.35c0-0.08-0.04-0.12-0.11-0.12h-5.52c-0.08,0-0.12,0.04-0.12,0.12v5.35
			C89.19,85.19,89.23,85.23,89.31,85.23z"/>
		<path d="M107.42,87.54V74.87h2.32v12.67H107.42z"/>
		<path d="M118.9,79.64h-3.98v5.47c0,0.08,0.04,0.12,0.12,0.12h3.85v2.3h-3.85c-0.68,0-1.26-0.24-1.72-0.71
			c-0.47-0.47-0.7-1.05-0.7-1.72V73.99h2.3v3.34h3.98V79.64z"/>
		<path d="M145.2,74.87h2.46l-4.61,12.67h-1.83l-3.29-8.99l-3.29,8.99h-1.81l-4.61-12.67h2.46l3.06,8.36l3.06-8.36h2.27l3.06,8.36
			L145.2,74.87z"/>
		<path d="M157.2,77.34c0.67,0,1.24,0.24,1.72,0.71c0.47,0.48,0.71,1.05,0.71,1.72v3.84h-8.06v1.51c0,0.08,0.04,0.12,0.12,0.12h7.93
			v2.3h-7.93c-0.67,0-1.24-0.24-1.72-0.71c-0.47-0.47-0.71-1.05-0.71-1.72v-5.35c0-0.67,0.24-1.24,0.71-1.72
			c0.48-0.47,1.05-0.71,1.72-0.71H157.2z M151.57,81.28h5.75v-1.51c0-0.08-0.04-0.12-0.12-0.12h-5.51c-0.08,0-0.12,0.04-0.12,0.12
			V81.28z"/>
		<path d="M162.43,73.99h2.32v11.12c0,0.08,0.04,0.12,0.11,0.12h2.06v2.3h-2.06c-0.67,0-1.24-0.24-1.72-0.71
			c-0.47-0.47-0.71-1.05-0.71-1.72V73.99z"/>
		<path d="M169.89,73.99h2.32v11.12c0,0.08,0.04,0.12,0.11,0.12h2.06v2.3h-2.06c-0.67,0-1.24-0.24-1.72-0.71
			c-0.47-0.47-0.71-1.05-0.71-1.72V73.99z"/>
	</g>
</g>
</svg>
